<?xml version="1.0" encoding="UTF-8" ?>
<!DOCTYPE svg PUBLIC "-//W3C//DTD SVG 1.1//EN" "http://www.w3.org/Graphics/SVG/1.1/DTD/svg11.dtd">
<svg width="443pt" height="57pt" viewBox="0 0 443 57" version="1.1" xmlns="http://www.w3.org/2000/svg">
<path fill="#ffffff" d=" M 0.00 0.00 L 52.26 0.00 C 47.06 2.02 46.01 8.89 48.74 13.26 C 51.24 16.60 56.10 16.38 59.77 15.68 C 63.79 14.46 64.52 9.54 63.95 5.95 C 63.74 3.03 60.94 1.56 58.85 0.00 L 443.00 0.00 L 443.00 31.49 C 441.80 27.13 439.93 22.57 435.99 20.01 C 431.66 16.87 426.04 16.66 420.91 17.08 C 415.91 17.51 410.69 19.62 407.90 23.99 C 404.59 29.03 404.66 35.38 405.20 41.15 C 405.73 46.79 409.14 52.31 414.56 54.39 C 420.06 56.49 426.33 56.62 431.99 55.08 C 438.06 53.26 441.53 47.35 443.00 41.55 L 443.00 57.00 L 164.61 57.00 C 168.70 55.74 173.27 54.34 176.02 50.88 C 175.94 46.59 173.44 42.53 171.00 39.10 C 168.91 39.10 167.02 40.12 165.13 40.85 C 164.19 37.52 163.85 34.06 163.90 30.61 C 167.14 30.57 170.37 30.54 173.60 30.51 C 173.99 26.36 174.10 22.18 173.97 18.01 C 170.98 17.99 167.99 17.99 165.00 17.97 C 165.00 14.45 165.02 10.92 165.03 7.40 C 160.08 7.70 154.98 7.61 150.25 9.27 C 149.63 11.99 149.70 14.84 148.87 17.51 C 147.30 17.89 145.69 18.10 144.10 18.35 C 143.97 22.43 143.95 26.51 144.04 30.59 C 145.69 30.59 147.34 30.60 148.99 30.61 C 149.12 37.67 148.31 45.12 151.17 51.78 C 152.35 54.73 155.27 56.32 158.22 57.00 L 0.00 57.00 L 0.00 0.00 Z" />
<path fill="#428bca" d=" M 52.26 0.00 L 58.85 0.00 C 60.94 1.56 63.74 3.03 63.95 5.95 C 64.52 9.54 63.79 14.46 59.77 15.68 C 56.10 16.38 51.24 16.60 48.74 13.26 C 46.01 8.89 47.06 2.02 52.26 0.00 Z" />
<path fill="#428bca" d=" M 359.41 4.21 C 374.84 2.62 390.39 2.70 405.89 2.24 C 406.14 9.90 405.94 17.57 406.01 25.24 C 402.06 25.39 398.11 25.34 394.17 25.07 C 393.89 22.25 393.62 19.43 393.37 16.60 C 392.29 16.46 391.21 16.31 390.15 16.15 C 389.91 24.85 390.78 33.52 391.05 42.20 C 393.58 42.19 396.10 42.22 398.63 42.27 C 398.95 46.37 399.12 50.48 398.83 54.59 C 388.52 55.08 378.20 55.02 367.88 54.99 C 367.84 51.04 367.90 47.09 368.02 43.15 C 370.67 42.89 373.32 42.58 375.95 42.14 C 375.74 33.59 375.69 25.03 375.34 16.48 C 374.51 16.51 372.84 16.58 372.01 16.61 C 372.00 19.56 372.00 22.51 372.01 25.46 C 367.73 25.59 363.44 25.50 359.18 25.12 C 358.99 18.15 358.97 11.17 359.41 4.21 Z" />
<path fill="#428bca" d=" M 221.45 3.53 C 228.88 2.34 237.34 2.49 243.47 7.47 C 249.94 12.49 252.21 21.09 252.05 28.97 C 252.25 37.58 249.64 47.12 242.30 52.33 C 235.14 57.22 225.57 57.04 217.62 54.35 C 209.95 51.68 205.21 43.94 204.37 36.13 C 203.60 28.50 203.47 20.24 207.24 13.32 C 210.06 8.00 215.62 4.57 221.45 3.53 Z" />
<path fill="#428bca" d=" M 1.75 3.99 C 14.76 4.10 27.79 3.80 40.80 4.17 C 41.05 9.97 41.13 15.78 40.89 21.59 C 36.89 22.28 32.88 22.86 28.83 23.11 C 28.53 21.39 28.20 19.67 27.86 17.95 C 26.24 17.93 24.62 17.91 23.00 17.89 C 23.03 20.22 23.05 22.54 23.07 24.87 C 25.37 25.18 27.66 25.51 29.96 25.83 C 29.89 29.85 29.80 33.88 29.73 37.90 C 27.50 37.97 25.27 38.01 23.04 38.08 C 23.05 39.98 23.06 41.88 23.08 43.78 C 25.21 43.93 27.33 44.05 29.46 44.20 C 29.98 48.15 30.42 52.11 30.62 56.09 C 20.80 56.36 10.97 56.41 1.15 55.97 C 0.98 52.25 0.91 48.52 0.97 44.80 C 2.91 44.65 4.85 44.48 6.78 44.31 C 7.18 35.29 6.94 26.25 6.76 17.23 C 4.72 17.13 2.68 17.04 0.64 16.98 C 0.34 12.61 1.02 8.28 1.75 3.99 Z" />
<path fill="#428bca" d=" M 150.25 9.27 C 154.98 7.61 160.08 7.70 165.03 7.40 C 165.02 10.92 165.00 14.45 165.00 17.97 C 167.99 17.99 170.98 17.99 173.97 18.01 C 174.10 22.18 173.99 26.36 173.60 30.51 C 170.37 30.54 167.14 30.57 163.90 30.61 C 163.85 34.06 164.19 37.52 165.13 40.85 C 167.02 40.12 168.91 39.10 171.00 39.10 C 173.44 42.53 175.94 46.59 176.02 50.88 C 173.27 54.34 168.70 55.74 164.61 57.00 L 158.22 57.00 C 155.27 56.32 152.35 54.73 151.17 51.78 C 148.31 45.12 149.12 37.67 148.99 30.61 C 147.34 30.60 145.69 30.59 144.04 30.59 C 143.95 26.51 143.97 22.43 144.10 18.35 C 145.69 18.10 147.30 17.89 148.87 17.51 C 149.70 14.84 149.63 11.99 150.25 9.27 Z" />
<path fill="#428bca" d=" M 71.70 17.88 C 77.04 16.86 82.39 15.71 87.85 15.64 C 88.27 16.67 88.68 17.69 89.10 18.72 C 95.10 15.77 102.97 16.32 107.96 21.00 C 109.56 22.19 109.18 24.59 108.08 25.99 C 106.14 28.69 104.20 31.50 101.62 33.63 C 98.70 34.52 96.66 29.89 93.88 31.76 C 90.28 34.22 91.09 39.02 91.31 42.75 C 93.49 43.01 95.67 43.28 97.85 43.54 C 98.06 47.35 98.06 51.16 97.99 54.98 C 89.60 55.03 81.22 54.99 72.83 55.00 C 72.44 51.05 72.19 47.08 72.53 43.11 C 74.01 43.08 75.50 43.04 76.98 43.00 C 77.01 38.28 77.01 33.57 76.99 28.86 C 75.62 28.85 74.25 28.84 72.88 28.84 C 72.21 25.22 71.85 21.56 71.70 17.88 Z" />
<path fill="#428bca" d=" M 112.08 20.06 C 115.03 16.76 119.73 15.75 123.99 16.00 C 129.97 16.50 136.04 15.27 141.94 16.77 C 141.78 21.45 141.48 26.12 140.95 30.78 C 138.42 30.90 135.90 31.00 133.37 31.08 C 138.32 33.94 142.66 38.90 142.07 44.99 C 142.54 50.70 137.56 55.37 132.16 56.03 C 128.05 57.25 123.91 54.67 119.83 55.90 C 116.29 56.91 112.61 56.40 109.01 56.06 C 108.99 50.69 109.00 45.31 109.00 39.94 C 112.22 39.65 115.47 39.55 118.71 39.73 L 118.75 39.50 C 114.99 37.96 111.32 35.23 110.37 31.05 C 109.72 27.40 109.33 23.00 112.08 20.06 Z" />
<path fill="#428bca" d=" M 254.76 17.05 C 259.81 16.43 264.85 15.46 269.96 15.51 C 270.78 16.47 271.47 17.54 272.27 18.53 C 278.65 14.38 288.98 14.73 293.24 21.74 C 297.17 28.39 295.65 36.37 296.12 43.70 C 296.85 43.77 298.32 43.91 299.05 43.97 C 299.08 47.65 299.10 51.32 299.03 55.00 C 292.29 55.01 285.56 55.00 278.82 55.00 C 278.51 51.34 278.42 47.67 278.51 44.00 C 279.35 43.91 281.03 43.75 281.87 43.67 C 281.79 39.69 283.11 34.31 279.18 31.70 C 277.43 30.38 275.36 31.93 274.36 33.42 C 272.36 36.45 273.15 40.28 273.05 43.69 C 274.52 44.03 276.00 44.36 277.47 44.69 C 277.54 48.13 277.53 51.57 277.55 55.01 C 270.30 55.00 263.06 55.00 255.82 55.01 C 255.41 51.37 255.29 47.70 255.44 44.05 C 256.95 44.01 258.47 43.98 259.99 43.95 C 260.00 39.06 260.02 34.18 259.91 29.30 C 258.54 29.31 257.19 29.33 255.83 29.34 C 255.23 25.27 254.85 21.16 254.76 17.05 Z" />
<path fill="#428bca" d=" M 304.48 19.38 C 312.73 13.60 325.71 14.90 331.68 23.39 C 334.70 27.14 332.18 32.06 331.28 36.13 C 327.49 38.32 323.68 40.47 319.85 42.59 C 323.30 42.90 326.76 43.07 330.23 43.00 C 330.13 47.36 329.55 51.68 328.74 55.96 C 321.28 57.08 313.34 56.01 306.72 52.29 C 301.01 49.09 297.71 42.51 297.94 36.04 C 297.68 29.95 299.30 23.14 304.48 19.38 Z" />
<path fill="#428bca" d=" M 407.90 23.99 C 410.69 19.62 415.91 17.51 420.91 17.08 C 426.04 16.66 431.66 16.87 435.99 20.01 C 439.93 22.57 441.80 27.13 443.00 31.49 L 443.00 41.55 C 441.53 47.35 438.06 53.26 431.99 55.08 C 426.33 56.62 420.06 56.49 414.56 54.39 C 409.14 52.31 405.73 46.79 405.20 41.15 C 404.66 35.38 404.59 29.03 407.90 23.99 Z" />
<path fill="#ffffff" d=" M 226.40 18.45 C 229.42 17.31 232.73 19.24 234.14 21.94 C 236.28 26.12 236.61 31.35 234.62 35.65 C 233.30 38.61 229.70 40.85 226.51 39.44 C 217.87 36.35 217.86 21.56 226.40 18.45 Z" />
<path fill="#428bca" d=" M 42.24 20.23 C 49.46 19.65 56.73 19.64 63.95 20.20 C 64.10 28.03 63.90 35.87 64.08 43.70 C 65.97 43.94 67.85 44.18 69.74 44.43 C 69.89 47.94 69.95 51.45 69.92 54.96 C 61.03 55.00 52.15 55.08 43.26 54.93 C 43.03 51.30 42.95 47.67 42.98 44.04 C 44.97 43.99 46.96 43.95 48.95 43.90 C 49.01 39.95 49.00 36.01 49.00 32.06 C 47.10 32.02 45.20 31.98 43.30 31.92 C 42.88 28.03 42.47 24.14 42.24 20.23 Z" />
<path fill="#ffffff" d=" M 126.96 27.41 C 128.19 26.71 130.12 28.46 129.56 29.74 C 128.36 30.24 126.31 28.74 126.96 27.41 Z" />
<path fill="#ffffff" d=" M 311.97 32.09 C 313.10 29.62 315.33 28.01 318.11 28.06 C 316.20 29.61 314.15 30.96 311.97 32.09 Z" />
<path fill="#ffffff" d=" M 423.51 31.42 C 429.51 29.93 430.96 41.06 424.99 41.82 C 419.66 41.34 418.40 33.29 423.51 31.42 Z" />
<path fill="#ffffff" d=" M 119.76 40.15 C 121.33 40.96 125.30 41.44 124.01 44.00 C 122.03 43.45 120.87 41.73 119.76 40.15 Z" />
</svg>
