<?xml version="1.0" encoding="UTF-8" ?>
<!DOCTYPE svg PUBLIC "-//W3C//DTD SVG 1.1//EN" "http://www.w3.org/Graphics/SVG/1.1/DTD/svg11.dtd">
<svg width="373pt" height="104pt" viewBox="0 0 373 104" version="1.1" xmlns="http://www.w3.org/2000/svg">
<path fill="#ffffff" d=" M 0.00 0.00 L 218.99 0.00 C 215.45 1.20 212.26 3.96 211.64 7.79 C 210.96 12.08 211.08 17.27 214.52 20.43 C 217.60 23.27 222.12 23.28 226.04 22.90 C 229.94 22.51 232.77 18.97 233.34 15.26 C 233.86 11.83 234.06 7.98 232.07 4.95 C 230.61 2.51 228.03 1.12 225.52 0.00 L 373.00 0.00 L 373.00 74.42 C 372.78 71.29 372.46 68.17 372.23 65.05 C 369.30 64.47 365.81 64.71 363.65 62.28 C 359.64 58.41 355.28 54.85 351.80 50.47 C 354.89 48.03 357.90 45.48 360.97 43.01 C 363.36 43.03 365.76 43.05 368.17 43.07 C 368.32 37.92 368.18 32.77 368.14 27.63 C 357.03 26.59 345.83 26.51 334.69 26.56 C 334.74 31.02 335.08 35.47 335.44 39.91 C 336.52 40.16 337.60 40.41 338.69 40.65 C 336.45 41.87 334.23 43.12 332.02 44.39 C 331.81 31.33 333.37 18.05 330.88 5.14 C 322.32 4.97 313.82 6.73 305.39 8.10 C 305.20 13.15 304.97 18.21 304.99 23.27 C 307.62 23.42 310.25 23.50 312.89 23.51 C 313.12 36.63 312.95 49.77 312.99 62.89 C 310.64 63.04 308.30 63.18 305.96 63.31 C 305.77 68.42 305.90 73.56 306.53 78.63 C 306.85 78.72 307.51 78.90 307.84 78.99 C 317.17 78.98 326.51 79.17 335.83 78.68 C 335.96 73.88 336.33 69.09 336.03 64.29 C 334.68 63.92 333.34 63.54 332.01 63.15 C 332.04 61.38 332.08 59.61 332.12 57.85 C 334.90 59.82 337.51 62.02 340.00 64.37 C 339.43 64.57 338.30 64.97 337.73 65.17 C 337.59 69.78 337.92 74.45 338.89 78.97 C 340.02 79.84 341.60 79.49 342.93 79.68 C 352.96 79.91 362.98 79.30 373.00 78.95 L 373.00 104.00 L 221.46 104.00 C 226.46 103.06 231.15 100.17 233.52 95.56 C 238.23 86.81 236.89 76.54 236.88 67.00 C 236.11 54.82 236.07 42.48 233.37 30.53 C 224.57 29.79 215.73 30.05 206.91 30.00 C 206.93 36.25 207.14 42.50 207.32 48.75 C 209.60 49.10 211.88 49.44 214.15 49.86 C 215.64 58.83 216.54 67.90 216.95 76.98 C 217.09 79.55 216.71 82.93 213.89 83.94 C 211.43 83.43 209.12 82.22 206.55 82.28 C 204.22 87.59 199.25 91.89 198.74 97.84 C 202.82 100.89 207.55 102.92 212.52 104.00 L 0.00 104.00 L 0.00 51.25 C 1.29 58.96 3.68 66.90 9.40 72.53 C 16.96 80.42 28.54 82.75 39.08 81.91 C 44.41 81.51 49.15 78.66 53.25 75.40 C 53.49 76.94 53.73 78.49 53.97 80.03 C 60.00 80.01 66.03 79.60 72.03 79.01 C 71.73 66.95 71.03 54.84 69.15 42.91 C 59.11 42.11 49.05 41.47 38.98 41.42 C 37.51 41.68 35.58 41.03 34.42 42.15 C 34.06 47.37 33.99 52.71 35.26 57.82 C 37.98 57.88 40.70 57.88 43.42 57.90 C 41.88 59.96 39.77 62.04 37.00 61.91 C 30.90 61.33 26.18 56.30 24.33 50.70 C 21.83 44.21 23.40 36.73 27.02 30.98 C 29.67 26.83 35.20 23.53 40.04 25.99 C 43.56 27.37 45.21 31.03 46.25 34.40 C 52.56 34.34 58.84 33.61 65.12 33.06 C 65.88 24.33 66.73 15.61 67.05 6.85 C 61.09 5.72 55.11 4.57 49.05 4.08 C 48.89 5.62 48.74 7.16 48.59 8.71 C 42.57 5.46 35.49 5.60 28.88 6.39 C 19.91 7.67 11.23 12.44 6.22 20.13 C 2.49 25.52 0.96 32.01 0.00 38.39 L 0.00 0.00 Z" />
<path fill="#428bca" d=" M 218.99 0.00 L 225.52 0.00 C 228.03 1.12 230.61 2.51 232.07 4.95 C 234.06 7.98 233.86 11.83 233.34 15.26 C 232.77 18.97 229.94 22.51 226.04 22.90 C 222.12 23.28 217.60 23.27 214.52 20.43 C 211.08 17.27 210.96 12.08 211.64 7.79 C 212.26 3.96 215.45 1.20 218.99 0.00 Z" />
<path fill="#428bca" d=" M 49.05 4.08 C 55.11 4.57 61.09 5.72 67.05 6.85 C 66.73 15.61 65.88 24.33 65.12 33.06 C 58.84 33.61 52.56 34.34 46.25 34.40 C 45.21 31.03 43.56 27.37 40.04 25.99 C 35.20 23.53 29.67 26.83 27.02 30.98 C 23.40 36.73 21.83 44.21 24.33 50.70 C 26.18 56.30 30.90 61.33 37.00 61.91 C 39.77 62.04 41.88 59.96 43.42 57.90 C 40.70 57.88 37.98 57.88 35.26 57.82 C 33.99 52.71 34.06 47.37 34.42 42.15 C 35.58 41.03 37.51 41.68 38.98 41.42 C 49.05 41.47 59.11 42.11 69.15 42.91 C 71.03 54.84 71.73 66.95 72.03 79.01 C 66.03 79.60 60.00 80.01 53.97 80.03 C 53.73 78.49 53.49 76.94 53.25 75.40 C 49.15 78.66 44.41 81.51 39.08 81.91 C 28.54 82.75 16.96 80.42 9.40 72.53 C 3.68 66.90 1.29 58.96 0.00 51.25 L 0.00 38.39 C 0.96 32.01 2.49 25.52 6.22 20.13 C 11.23 12.44 19.91 7.67 28.88 6.39 C 35.49 5.60 42.57 5.46 48.59 8.71 C 48.74 7.16 48.89 5.62 49.05 4.08 Z" />
<path fill="#428bca" d=" M 167.14 19.81 C 166.86 14.85 167.26 9.89 167.76 4.95 C 177.17 5.05 186.59 4.98 196.00 5.00 C 196.00 24.00 195.99 43.00 196.01 62.00 C 198.67 62.00 201.33 62.00 204.00 62.00 C 204.07 67.66 204.12 73.32 204.09 78.98 C 195.50 79.01 186.75 80.15 178.26 79.09 C 178.14 78.62 177.90 77.67 177.78 77.20 C 172.68 80.79 166.02 80.34 160.13 79.74 C 150.35 78.18 142.68 69.66 141.47 59.94 C 140.47 51.11 140.40 41.24 145.66 33.63 C 152.26 24.70 165.45 24.34 175.00 28.07 C 175.00 25.78 174.99 23.49 174.98 21.19 C 172.35 20.85 169.73 20.36 167.14 19.81 Z" />
<path fill="#428bca" d=" M 305.39 8.10 C 313.82 6.73 322.32 4.97 330.88 5.14 C 333.37 18.05 331.81 31.33 332.02 44.39 C 334.23 43.12 336.45 41.87 338.69 40.65 C 337.60 40.41 336.52 40.16 335.44 39.91 C 335.08 35.47 334.74 31.02 334.69 26.56 C 345.83 26.51 357.03 26.59 368.14 27.63 C 368.18 32.77 368.32 37.92 368.17 43.07 C 365.76 43.05 363.36 43.03 360.97 43.01 C 357.90 45.48 354.89 48.03 351.80 50.47 C 355.28 54.85 359.64 58.41 363.65 62.28 C 365.81 64.71 369.30 64.47 372.23 65.05 C 372.46 68.17 372.78 71.29 373.00 74.42 L 373.00 78.95 C 362.98 79.30 352.96 79.91 342.93 79.68 C 341.60 79.49 340.02 79.84 338.89 78.97 C 337.92 74.45 337.59 69.78 337.73 65.17 C 338.30 64.97 339.43 64.57 340.00 64.37 C 337.51 62.02 334.90 59.82 332.12 57.85 C 332.08 59.61 332.04 61.38 332.01 63.15 C 333.34 63.54 334.68 63.92 336.03 64.29 C 336.33 69.09 335.96 73.88 335.83 78.68 C 326.51 79.17 317.17 78.98 307.84 78.99 C 307.51 78.90 306.85 78.72 306.53 78.63 C 305.90 73.56 305.77 68.42 305.96 63.31 C 308.30 63.18 310.64 63.04 312.99 62.89 C 312.95 49.77 313.12 36.63 312.89 23.51 C 310.25 23.50 307.62 23.42 304.99 23.27 C 304.97 18.21 305.20 13.15 305.39 8.10 Z" />
<path fill="#428bca" d=" M 82.24 33.26 C 90.55 25.23 104.25 25.25 114.01 30.57 C 114.00 29.68 114.00 27.89 113.99 27.00 C 121.65 26.78 129.32 26.41 136.98 26.68 C 137.21 31.82 137.71 36.96 137.62 42.11 C 135.03 42.62 132.46 43.19 129.89 43.79 C 129.62 49.96 130.07 56.15 130.01 62.33 C 132.99 62.38 135.98 62.40 138.92 62.95 C 139.05 68.27 139.05 73.60 138.83 78.92 C 130.56 79.04 122.27 79.10 113.99 78.83 C 113.86 77.63 113.73 76.44 113.61 75.24 C 107.62 80.75 98.53 81.08 91.10 78.78 C 82.94 76.19 77.58 68.25 76.47 60.00 C 75.33 50.91 75.44 40.28 82.24 33.26 Z" />
<path fill="#428bca" d=" M 244.30 34.30 C 252.32 25.22 266.90 25.04 277.00 30.57 C 277.00 29.68 277.00 27.89 277.00 27.00 C 284.65 26.78 292.32 26.42 299.98 26.68 C 300.21 31.82 300.72 36.97 300.61 42.12 C 297.98 42.64 295.35 43.15 292.78 43.90 C 292.75 50.04 293.00 56.18 293.01 62.33 C 295.99 62.37 298.98 62.41 301.92 62.94 C 302.05 68.26 302.04 73.59 301.84 78.91 C 293.58 79.08 285.30 79.06 277.04 78.85 C 276.88 77.65 276.73 76.46 276.60 75.26 C 270.57 80.77 261.43 81.08 253.99 78.74 C 245.89 76.12 240.58 68.22 239.47 60.01 C 238.40 51.32 238.40 41.39 244.30 34.30 Z" />
<path fill="#428bca" d=" M 206.91 30.00 C 215.73 30.05 224.57 29.79 233.37 30.53 C 236.07 42.48 236.11 54.82 236.88 67.00 C 236.89 76.54 238.23 86.81 233.52 95.56 C 231.15 100.17 226.46 103.06 221.46 104.00 L 212.52 104.00 C 207.55 102.92 202.82 100.89 198.74 97.84 C 199.25 91.89 204.22 87.59 206.55 82.28 C 209.12 82.22 211.43 83.43 213.89 83.94 C 216.71 82.93 217.09 79.55 216.95 76.98 C 216.54 67.90 215.64 58.83 214.15 49.86 C 211.88 49.44 209.60 49.10 207.32 48.75 C 207.14 42.50 206.93 36.25 206.91 30.00 Z" />
<path fill="#ffffff" d=" M 166.23 43.32 C 169.60 42.71 171.65 46.64 172.44 49.38 C 174.04 53.99 172.47 60.93 166.97 61.91 C 162.80 61.37 161.06 56.67 161.04 52.98 C 161.15 49.29 162.23 44.58 166.23 43.32 Z" />
<path fill="#ffffff" d=" M 100.33 45.39 C 104.48 42.78 108.79 47.13 109.62 51.07 C 111.17 55.87 106.00 62.83 100.84 60.18 C 95.02 57.55 94.50 48.31 100.33 45.39 Z" />
<path fill="#ffffff" d=" M 263.28 45.41 C 266.88 43.01 271.00 46.29 272.17 49.77 C 274.39 54.30 271.03 60.53 265.94 60.92 C 263.25 60.37 260.90 58.45 259.88 55.90 C 258.00 52.24 259.72 47.34 263.28 45.41 Z" />
</svg>
